<svg width="28" height="24" viewBox="0 0 28 24" fill="none" xmlns="http://www.w3.org/2000/svg">
<path d="M21.6363 0H6.3636C4.9175 0.00173221 3.53112 0.576962 2.50857 1.59951C1.48602 2.62206 0.91079 4.00844 0.909058 5.45455L0.909058 18.5455C0.91079 19.9916 1.48602 21.3779 2.50857 22.4005C3.53112 23.423 4.9175 23.9983 6.3636 24H21.6363C23.0824 23.9983 24.4688 23.423 25.4914 22.4005C26.5139 21.3779 27.0891 19.9916 27.0909 18.5455V5.45455C27.0891 4.00844 26.5139 2.62206 25.4914 1.59951C24.4688 0.576962 23.0824 0.00173221 21.6363 0ZM6.3636 2.18182H21.6363C22.5043 2.18182 23.3367 2.52662 23.9505 3.14038C24.5643 3.75413 24.9091 4.58656 24.9091 5.45455V6.54545H3.09088V5.45455C3.09088 4.58656 3.43568 3.75413 4.04944 3.14038C4.66319 2.52662 5.49562 2.18182 6.3636 2.18182ZM21.6363 21.8182H6.3636C5.49562 21.8182 4.66319 21.4734 4.04944 20.8596C3.43568 20.2459 3.09088 19.4134 3.09088 18.5455V8.72727H24.9091V18.5455C24.9091 19.4134 24.5643 20.2459 23.9505 20.8596C23.3367 21.4734 22.5043 21.8182 21.6363 21.8182ZM21.6363 13.0909C21.6363 13.3802 21.5214 13.6577 21.3168 13.8623C21.1122 14.0669 20.8347 14.1818 20.5454 14.1818H7.45451C7.16519 14.1818 6.88771 14.0669 6.68312 13.8623C6.47854 13.6577 6.3636 13.3802 6.3636 13.0909C6.3636 12.8016 6.47854 12.5241 6.68312 12.3195C6.88771 12.1149 7.16519 12 7.45451 12H20.5454C20.8347 12 21.1122 12.1149 21.3168 12.3195C21.5214 12.5241 21.6363 12.8016 21.6363 13.0909ZM17.2727 17.4545C17.2727 17.7439 17.1578 18.0214 16.9532 18.2259C16.7486 18.4305 16.4711 18.5455 16.1818 18.5455H7.45451C7.16519 18.5455 6.88771 18.4305 6.68312 18.2259C6.47854 18.0214 6.3636 17.7439 6.3636 17.4545C6.3636 17.1652 6.47854 16.8877 6.68312 16.6832C6.88771 16.4786 7.16519 16.3636 7.45451 16.3636H16.1818C16.4711 16.3636 16.7486 16.4786 16.9532 16.6832C17.1578 16.8877 17.2727 17.1652 17.2727 17.4545ZM4.18178 4.36364C4.18178 4.14788 4.24577 3.93696 4.36564 3.75756C4.48551 3.57816 4.65588 3.43834 4.85522 3.35577C5.05456 3.2732 5.2739 3.2516 5.48552 3.29369C5.69714 3.33578 5.89152 3.43968 6.04408 3.59225C6.19665 3.74481 6.30055 3.9392 6.34264 4.15081C6.38473 4.36243 6.36313 4.58177 6.28056 4.78111C6.19799 4.98045 6.05817 5.15082 5.87877 5.27069C5.69937 5.39056 5.48846 5.45455 5.27269 5.45455C4.98337 5.45455 4.70589 5.33961 4.5013 5.13503C4.29672 4.93044 4.18178 4.65296 4.18178 4.36364ZM7.45451 4.36364C7.45451 4.14788 7.51849 3.93696 7.63836 3.75756C7.75823 3.57816 7.92861 3.43834 8.12795 3.35577C8.32729 3.2732 8.54663 3.2516 8.75825 3.29369C8.96986 3.33578 9.16424 3.43968 9.31681 3.59225C9.46938 3.74481 9.57328 3.9392 9.61537 4.15081C9.65746 4.36243 9.63586 4.58177 9.55329 4.78111C9.47072 4.98045 9.3309 5.15082 9.1515 5.27069C8.9721 5.39056 8.76118 5.45455 8.54542 5.45455C8.25609 5.45455 7.97862 5.33961 7.77403 5.13503C7.56945 4.93044 7.45451 4.65296 7.45451 4.36364ZM10.7272 4.36364C10.7272 4.14788 10.7912 3.93696 10.9111 3.75756C11.031 3.57816 11.2013 3.43834 11.4007 3.35577C11.6 3.2732 11.8194 3.2516 12.031 3.29369C12.2426 3.33578 12.437 3.43968 12.5895 3.59225C12.7421 3.74481 12.846 3.9392 12.8881 4.15081C12.9302 4.36243 12.9086 4.58177 12.826 4.78111C12.7434 4.98045 12.6036 5.15082 12.4242 5.27069C12.2448 5.39056 12.0339 5.45455 11.8181 5.45455C11.5288 5.45455 11.2513 5.33961 11.0468 5.13503C10.8422 4.93044 10.7272 4.65296 10.7272 4.36364Z" fill="black"/>
</svg>
