<svg width="24" height="24" viewBox="0 0 24 24" fill="none" xmlns="http://www.w3.org/2000/svg">
<g clip-path="url(#clip0_3551_87)">
<path d="M22.9 8.955C22.5689 8.78721 22.1975 8.71552 21.8277 8.74804C21.458 8.78056 21.1047 8.916 20.808 9.139L18.975 10.5C18.8495 9.26729 18.2714 8.12488 17.3525 7.29368C16.4336 6.46249 15.2391 6.00155 14 6H13.915L9.793 1.879C9.51528 1.59933 9.18478 1.37762 8.82068 1.22673C8.45658 1.07583 8.06613 0.998766 7.672 0.999999H1C0.734784 0.999999 0.48043 1.10536 0.292893 1.29289C0.105357 1.48043 0 1.73478 0 2C0 2.26522 0.105357 2.51957 0.292893 2.70711C0.48043 2.89464 0.734784 3 1 3H7.672C7.93706 3.00071 8.19114 3.106 8.379 3.293L11.086 6H5C3.67441 6.00159 2.40356 6.52888 1.46622 7.46622C0.528882 8.40356 0.00158786 9.6744 0 11L0 19C0.00158786 20.3256 0.528882 21.5964 1.46622 22.5338C2.40356 23.4711 3.67441 23.9984 5 24H14C15.2391 23.9984 16.4336 23.5375 17.3525 22.7063C18.2714 21.8751 18.8495 20.7327 18.975 19.5L20.805 20.864C21.1021 21.0869 21.4555 21.2226 21.8254 21.2559C22.1953 21.2893 22.5672 21.219 22.8994 21.0529C23.2316 20.8867 23.511 20.6314 23.7063 20.3155C23.9016 19.9995 24.005 19.6354 24.005 19.264V10.743C24.0063 10.3715 23.9034 10.0071 23.7081 9.69102C23.5128 9.37499 23.2329 9.12001 22.9 8.955ZM17 19C17 19.7956 16.6839 20.5587 16.1213 21.1213C15.5587 21.6839 14.7956 22 14 22H5C4.20435 22 3.44129 21.6839 2.87868 21.1213C2.31607 20.5587 2 19.7956 2 19V11C2 10.2043 2.31607 9.44129 2.87868 8.87868C3.44129 8.31607 4.20435 8 5 8H14C14.7956 8 15.5587 8.31607 16.1213 8.87868C16.6839 9.44129 17 10.2043 17 11V19ZM22 19.257L19 17.021V12.979L22 10.743V19.257Z" fill="#111238"/>
</g>
<defs>
<clipPath id="clip0_3551_87">
<rect width="24" height="24" fill="white"/>
</clipPath>
</defs>
</svg>
